<svg width="8" height="35" viewBox="0 0 8 35" fill="none" xmlns="http://www.w3.org/2000/svg">
<path d="M2.464 22.192C2.24 20.208 2.016 18.16 1.792 16.048C1.6 13.904 1.44 11.792 1.312 9.712C1.184 7.6 1.12 5.6 1.12 3.712V0.207997H7.36V3.712C7.36 5.664 7.296 7.712 7.168 9.856C7.072 12 6.912 14.128 6.688 16.24C6.496 18.352 6.272 20.336 6.016 22.192H2.464ZM4.144 34.528C2.992 34.528 2.096 34.192 1.456 33.52C0.848 32.848 0.544 31.904 0.544 30.688C0.544 29.568 0.864 28.656 1.504 27.952C2.176 27.216 3.056 26.848 4.144 26.848C5.296 26.848 6.176 27.184 6.784 27.856C7.424 28.496 7.744 29.44 7.744 30.688C7.744 31.808 7.408 32.736 6.736 33.472C6.096 34.176 5.232 34.528 4.144 34.528Z" fill="white"/>
</svg>
