<svg width="300" height="78" viewBox="0 0 300 78" fill="none" xmlns="http://www.w3.org/2000/svg">
<g clip-path="url(#clip0_134_368)">
<path d="M23.9311 57.2305C28.8382 55.7806 31.2359 52.2676 31.2359 46.6914C31.2359 42.8438 30.1207 40.0557 27.8902 38.3271C25.6597 36.5985 21.9794 35.7063 16.7935 35.7063H4.24707V69.4981H9.99056V63.7546V58.1227V52.9368V47.7509V40.8364H17.2396C20.3065 40.8364 22.4255 41.2267 23.6523 42.0632C24.8233 42.8996 25.4367 44.4052 25.4367 46.6357C25.4367 48.8661 24.879 50.4275 23.708 51.4312C22.5928 52.3792 20.6411 52.881 17.63 52.9368V58.1227L25.5482 69.4981H32.7973L23.9311 57.2305Z" fill="#00A3E2"/>
<path d="M58.4476 63.2528C57.3324 63.9219 55.7153 64.2565 53.6521 64.2565H44.6186V61.5799V55V49.7026V45.5204V40.9479H51.9235C54.0424 40.9479 55.548 41.2825 56.5517 42.0074C57.5554 42.7323 58.0573 43.9033 58.0573 45.5204C58.0573 48.2528 56.1614 49.6468 52.2023 49.7026V55H52.8157C57.6112 55 60.009 56.5056 60.009 59.5167C60.1205 61.3569 59.5629 62.5836 58.4476 63.2528ZM64.0796 54.7769C62.8528 53.3271 61.18 52.3792 59.061 51.9331C59.6186 51.6543 60.0647 51.487 60.2878 51.3755C60.5108 51.2639 60.9569 50.9851 61.5703 50.539C63.2432 49.2565 64.0796 47.2491 64.0796 44.6282C64.0796 42.4535 63.2989 40.4461 61.7376 38.7175C60.9012 37.7695 59.6744 37.0446 58.0573 36.487C56.3844 35.9294 54.4328 35.6505 52.1465 35.6505H38.9309V69.4981H53.7636C58.3919 69.4981 61.6261 68.4386 63.5777 66.3755C65.1948 64.5911 66.0313 62.4721 66.0313 60.1301C65.9755 58.0111 65.3621 56.2268 64.0796 54.7769Z" fill="#010202"/>
<path d="M95.418 38.6059C93.076 36.6543 89.3399 35.6505 84.154 35.6505H72.4998V69.4981H78.2433V61.0223V59.5167V54.3308V45.0743V40.8364H84.0425C87.1652 40.8364 89.3957 41.3383 90.8455 42.2862C92.2953 43.2342 93.0202 44.907 93.0202 47.2491C93.0202 49.5911 92.4626 51.3755 91.2916 52.5465C90.2321 53.6617 88.5035 54.2193 85.8269 54.3308V59.5167C90.0648 59.3494 93.1317 58.4015 95.3064 56.6728C97.7042 54.7769 98.931 51.7658 98.931 47.6394C98.9867 43.6245 97.8157 40.5576 95.418 38.6059Z" fill="#010202"/>
<path d="M18.1317 24.052C20.8641 21.2639 22.7042 18.9777 23.7079 17.1933C24.7116 15.4089 25.2135 13.5688 25.2135 11.6171C25.2135 8.15984 24.0425 5.37174 21.6447 3.3643C19.247 1.35687 16.4588 0.353149 13.2804 0.353149C10.1577 0.353149 7.53691 0.966532 5.52948 2.24906C3.52204 3.53159 1.6819 5.4275 0.0090332 7.88103L5.19491 10.8922C7.2581 7.71374 9.82316 6.09664 12.9458 6.09664C14.7302 6.09664 16.18 6.65426 17.351 7.71374C18.522 8.77322 19.0797 10.0558 19.0797 11.6171C19.0797 13.1227 18.522 14.6282 17.4626 16.1338C16.4031 17.6394 14.5629 19.6468 11.9979 22.2676L4.30271 29.9628H12.3325L18.1317 24.052Z" fill="#00A3E2"/>
<path d="M45.0091 1.30112H31.2358V6.98885H38.931V29.9628H45.0091V1.30112Z" fill="#010202"/>
<path d="M79.4143 27.342C79.4143 24.4424 78.4106 21.9331 76.4589 19.8699C74.5072 17.8067 71.7749 16.6914 68.3176 16.5799L77.5184 6.26392V1.24533H55.2693V6.93306H69.0425L60.2321 17.1933V22.1004C61.5146 21.71 62.9087 21.487 64.3027 21.487C67.1466 21.487 69.3213 22.0446 70.9384 23.2156C72.5555 24.3866 73.3362 25.9479 73.3362 27.8438C73.3362 28.6245 73.1689 29.2937 72.9459 29.907H79.1912C79.3585 29.1264 79.4143 28.2342 79.4143 27.342Z" fill="#010202"/>
<path d="M128.875 27.6766V29.9628H112.314V28.1784L125.139 11.9517H112.537V9.60965H128.652V11.4498L115.827 27.6766H128.875Z" fill="#010202"/>
<path d="M145.437 26.7286C146.608 26.0595 147.5 25.1115 148.169 23.9405C148.838 22.7137 149.173 21.3197 149.173 19.8141C149.173 18.2528 148.838 16.8587 148.169 15.6877C147.5 14.4609 146.608 13.513 145.437 12.8996C144.266 12.2305 142.983 11.8959 141.589 11.8959C140.139 11.8959 138.857 12.2305 137.686 12.8996C136.515 13.5688 135.622 14.5167 134.953 15.6877C134.284 16.9145 133.95 18.3085 133.95 19.8141C133.95 21.3754 134.284 22.7695 134.953 23.9405C135.622 25.1673 136.515 26.1152 137.686 26.7286C138.857 27.3977 140.139 27.7323 141.589 27.7323C142.983 27.7323 144.321 27.3977 145.437 26.7286ZM151.849 1.24533V29.9628H149.228V25.9479C148.392 27.342 147.333 28.3457 145.938 29.0706C144.6 29.7955 143.039 30.1301 141.366 30.1301C139.47 30.1301 137.741 29.684 136.18 28.7918C134.619 27.8996 133.392 26.6728 132.556 25.1115C131.663 23.5502 131.217 21.7658 131.217 19.7026C131.217 17.6951 131.663 15.9108 132.556 14.2937C133.448 12.7323 134.619 11.5056 136.18 10.6134C137.741 9.77693 139.47 9.33083 141.366 9.33083C143.039 9.33083 144.489 9.6654 145.827 10.3345C147.165 11.0037 148.225 12.0074 149.117 13.3457V1.24533H151.849Z" fill="#010202"/>
<path d="M164.34 10.5018C165.623 9.77693 167.184 9.44235 169.08 9.44235V12.1189L168.411 12.0632C166.292 12.0632 164.563 12.7323 163.392 14.0148C162.165 15.3531 161.552 17.1933 161.552 19.5353V29.907H158.82V9.60964H161.44V13.6245C162.11 12.2305 163.058 11.171 164.34 10.5018Z" fill="#010202"/>
<path d="M183.466 26.9516C184.581 26.2267 185.418 25.223 185.92 23.8847V20.539H179.563C176.106 20.539 174.321 21.7658 174.321 24.1635C174.321 25.3345 174.767 26.2825 175.659 26.9516C176.552 27.6208 177.834 27.9554 179.451 27.9554C181.013 28.0111 182.351 27.6766 183.466 26.9516ZM186.533 11.4498C187.927 12.7881 188.652 14.7397 188.652 17.3606V29.9628H186.031V26.7844C185.418 27.8438 184.526 28.6803 183.299 29.2379C182.072 29.8513 180.678 30.1301 179.005 30.1301C176.719 30.1301 174.935 29.5725 173.596 28.513C172.258 27.4535 171.589 26.0037 171.589 24.2193C171.589 22.4907 172.202 21.0966 173.485 20.0371C174.712 18.9777 176.719 18.4758 179.451 18.4758H185.92V17.249C185.92 15.5204 185.418 14.1821 184.47 13.2342C183.466 12.342 182.072 11.8401 180.176 11.8401C178.894 11.8401 177.667 12.0632 176.44 12.4535C175.269 12.8996 174.21 13.4572 173.373 14.2379L172.146 12.1747C173.206 11.2825 174.433 10.6134 175.883 10.1673C177.332 9.6654 178.838 9.44235 180.455 9.44235C183.076 9.44235 185.139 10.1115 186.533 11.4498Z" fill="#010202"/>
<path d="M212.184 9.60965L203.095 29.9628H200.306L191.273 9.60965H194.117L201.756 26.9517L209.451 9.60965H212.184Z" fill="#010202"/>
<path d="M227.017 26.7286C228.188 26.0595 229.08 25.1115 229.693 23.9405C230.362 22.7137 230.641 21.3197 230.641 19.8141C230.641 18.2528 230.307 16.8587 229.693 15.6877C229.024 14.4609 228.132 13.513 227.017 12.8996C225.846 12.2305 224.563 11.8959 223.113 11.8959C221.663 11.8959 220.381 12.2305 219.21 12.8996C218.039 13.5687 217.147 14.5167 216.478 15.6877C215.808 16.9145 215.474 18.3085 215.474 19.8141C215.474 21.3754 215.808 22.7695 216.478 23.9405C217.147 25.1673 218.039 26.1152 219.21 26.7286C220.381 27.3977 221.663 27.7323 223.113 27.7323C224.563 27.7323 225.846 27.3977 227.017 26.7286ZM217.816 28.8476C216.254 27.9554 215.028 26.7286 214.08 25.1673C213.188 23.6059 212.741 21.8215 212.741 19.8141C212.741 17.8067 213.188 16.0223 214.08 14.4609C214.972 12.8996 216.199 11.6728 217.816 10.7806C219.377 9.88845 221.162 9.44235 223.113 9.44235C225.065 9.44235 226.849 9.88845 228.411 10.7806C229.972 11.6728 231.199 12.8996 232.091 14.4609C232.983 16.0223 233.429 17.8067 233.429 19.8141C233.429 21.8215 232.983 23.6059 232.091 25.1673C231.199 26.7286 229.972 27.9554 228.411 28.8476C226.849 29.7397 225.065 30.1858 223.113 30.1858C221.162 30.1858 219.377 29.7397 217.816 28.8476Z" fill="#010202"/>
<path d="M249.098 28.736C248.597 29.1821 247.927 29.5725 247.202 29.7955C246.422 30.0186 245.641 30.1859 244.805 30.1859C242.909 30.1859 241.403 29.684 240.4 28.6245C239.396 27.565 238.838 26.1152 238.838 24.2193V11.9517H235.214V9.60965H238.838V5.14868H241.571V9.60965H247.76V11.9517H241.571V24.1078C241.571 25.3346 241.849 26.2267 242.463 26.8959C243.076 27.5093 243.913 27.8438 245.084 27.8438C245.641 27.8438 246.199 27.7323 246.756 27.565C247.258 27.3978 247.76 27.1189 248.15 26.7844L249.098 28.736Z" fill="#010202"/>
<path d="M269.842 11.6728C271.347 13.1784 272.128 15.2974 272.128 18.1412V29.9628H269.396V18.42C269.396 16.3011 268.894 14.684 267.834 13.5687C266.775 12.4535 265.269 11.8959 263.318 11.8959C261.143 11.8959 259.358 12.565 258.132 13.8476C256.849 15.1301 256.236 16.9702 256.236 19.2565V29.9628H253.503V9.60964H256.124V13.3457C256.849 12.1189 257.909 11.171 259.247 10.4461C260.585 9.77693 262.147 9.44235 263.875 9.44235C266.329 9.44235 268.336 10.223 269.842 11.6728Z" fill="#010202"/>
<path d="M278.875 9.60963H281.608V29.9628H278.875V9.60963ZM283.057 1.63565H286.738L280.492 6.43119H277.76L283.057 1.63565Z" fill="#010202"/>
<path d="M128.708 66.487C129.879 65.8178 130.771 64.8699 131.44 63.6989C132.109 62.4721 132.444 61.078 132.444 59.5725C132.444 58.0111 132.109 56.6728 131.44 55.4461C130.771 54.2193 129.879 53.3271 128.708 52.658C127.537 51.9888 126.254 51.6543 124.86 51.6543C123.41 51.6543 122.128 51.9888 120.957 52.658C119.786 53.3271 118.894 54.2751 118.224 55.4461C117.555 56.6728 117.221 58.0111 117.221 59.5725C117.221 61.1338 117.555 62.5279 118.224 63.6989C118.894 64.9256 119.786 65.8736 120.957 66.487C122.128 67.1561 123.41 67.4907 124.86 67.4907C126.254 67.4907 127.537 67.1561 128.708 66.487ZM130.213 50.539C131.775 51.4312 133.001 52.6022 133.838 54.2193C134.73 55.7807 135.176 57.565 135.176 59.6282C135.176 61.6914 134.73 63.4758 133.838 65.0372C132.946 66.5985 131.775 67.8253 130.213 68.7175C128.652 69.6096 126.923 70 125.027 70C123.355 70 121.905 69.6654 120.566 68.9963C119.228 68.3271 118.169 67.3234 117.277 65.9851V77.3048H114.544V49.4238H117.165V53.4386C118.001 52.1004 119.061 51.0409 120.455 50.316C121.793 49.5911 123.355 49.2565 125.027 49.2565C126.923 49.2007 128.652 49.6468 130.213 50.539Z" fill="#010202"/>
<path d="M152.295 66.487C153.466 65.8178 154.359 64.8699 154.972 63.6989C155.641 62.4721 155.92 61.0781 155.92 59.5725C155.92 58.0112 155.585 56.6171 154.972 55.4461C154.303 54.2193 153.411 53.3271 152.295 52.658C151.124 51.9889 149.842 51.6543 148.392 51.6543C146.942 51.6543 145.66 51.9889 144.489 52.658C143.318 53.3271 142.425 54.2751 141.756 55.4461C141.087 56.6729 140.753 58.0669 140.753 59.5725C140.753 61.1338 141.087 62.5279 141.756 63.6989C142.425 64.9257 143.318 65.8736 144.489 66.487C145.66 67.1561 146.942 67.4907 148.392 67.4907C149.842 67.4907 151.124 67.1561 152.295 66.487ZM143.095 68.606C141.533 67.7138 140.307 66.487 139.359 64.9257C138.466 63.3643 138.02 61.5799 138.02 59.5725C138.02 57.5651 138.466 55.7807 139.359 54.2193C140.251 52.658 141.478 51.4312 143.095 50.539C144.656 49.6468 146.44 49.2007 148.392 49.2007C150.344 49.2007 152.128 49.6468 153.689 50.539C155.251 51.4312 156.478 52.658 157.37 54.2193C158.262 55.7807 158.708 57.5651 158.708 59.5725C158.708 61.5799 158.262 63.3643 157.37 64.9257C156.478 66.487 155.251 67.7138 153.689 68.606C152.128 69.4981 150.344 69.9442 148.392 69.9442C146.44 69.9442 144.656 69.4981 143.095 68.606Z" fill="#010202"/>
<path d="M163.838 44.2937C163.448 43.9033 163.28 43.4572 163.28 42.8996C163.28 42.3977 163.503 41.9516 163.838 41.5613C164.228 41.171 164.674 41.0037 165.288 41.0037C165.845 41.0037 166.347 41.171 166.738 41.5613C167.128 41.9516 167.295 42.3977 167.295 42.8996C167.295 43.4572 167.128 43.9591 166.738 44.3494C166.347 44.7398 165.845 44.907 165.288 44.907C164.674 44.8513 164.228 44.684 163.838 44.2937ZM158.206 77.1375C157.425 76.9145 156.812 76.5799 156.31 76.1338L157.258 74.0148C158.039 74.7398 159.098 75.0743 160.436 75.0743C161.496 75.0743 162.332 74.7398 162.946 74.1264C163.503 73.4572 163.838 72.5093 163.838 71.2825V49.368H166.57V71.2267C166.57 73.1227 166.068 74.6282 165.009 75.7435C163.949 76.8587 162.5 77.4163 160.604 77.4163C159.767 77.4163 158.987 77.3606 158.206 77.1375Z" fill="#010202"/>
<path d="M173.596 49.368H176.329V69.7212H173.596V49.368ZM173.541 44.3494C173.15 43.9591 172.983 43.513 172.983 42.9554C172.983 42.4535 173.15 42.0074 173.541 41.6171C173.931 41.2267 174.377 41.0594 174.99 41.0594C175.548 41.0594 176.05 41.2267 176.44 41.6171C176.83 42.0074 176.998 42.4535 176.998 42.9554C176.998 43.513 176.83 44.0148 176.44 44.4052C176.05 44.7955 175.548 44.9628 174.99 44.9628C174.377 44.907 173.931 44.7397 173.541 44.3494Z" fill="#010202"/>
<path d="M195.288 41.394L190.269 46.1896H187.481L182.463 41.394H185.028L188.875 44.5725L192.723 41.394H195.288ZM184.024 69.2193C182.518 68.7175 181.347 68.1598 180.455 67.4349L181.682 65.2602C182.518 65.9294 183.578 66.487 184.916 66.8773C186.199 67.3234 187.537 67.4907 188.931 67.4907C190.771 67.4907 192.165 67.2119 193.057 66.5985C193.95 66.0409 194.396 65.2045 194.396 64.145C194.396 63.4201 194.173 62.8067 193.671 62.3606C193.169 61.9145 192.555 61.6357 191.831 61.4126C191.106 61.1896 190.102 60.9665 188.875 60.7992C187.202 60.4647 185.92 60.1859 184.86 59.8513C183.857 59.5167 183.02 58.9591 182.295 58.1784C181.57 57.3978 181.236 56.3383 181.236 54.9442C181.236 53.2156 181.961 51.8216 183.355 50.7621C184.749 49.7026 186.756 49.145 189.265 49.145C190.604 49.145 191.886 49.3123 193.225 49.6468C194.563 49.9814 195.622 50.4275 196.459 51.0409L195.232 53.2714C193.559 52.1004 191.552 51.5427 189.21 51.5427C187.481 51.5427 186.143 51.8773 185.251 52.4907C184.358 53.1041 183.912 53.9405 183.912 54.9442C183.912 55.7249 184.135 56.3383 184.637 56.7844C185.139 57.2305 185.752 57.6208 186.533 57.7881C187.258 58.0111 188.318 58.2342 189.656 58.4572C191.273 58.7918 192.611 59.0706 193.559 59.4052C194.563 59.7398 195.399 60.2416 196.068 60.9665C196.738 61.6914 197.128 62.7509 197.128 64.0892C197.128 65.8736 196.403 67.2677 194.897 68.3271C193.392 69.3866 191.329 69.8885 188.708 69.8885C187.091 69.9442 185.529 69.7212 184.024 69.2193Z" fill="#010202"/>
<path d="M208.28 40.1673H210.511L210.176 46.5799H208.336V40.1673H208.28ZM212.239 68.4944C211.738 68.9405 211.068 69.3308 210.344 69.5539C209.563 69.7769 208.782 69.9442 207.946 69.9442C206.05 69.9442 204.544 69.4424 203.541 68.3829C202.537 67.3792 201.979 65.8736 201.979 64.0334V51.71H198.355V49.368H201.979V44.907H204.712V49.368H210.901V51.71H204.712V63.8662C204.712 65.0929 204.99 65.9851 205.604 66.6543C206.217 67.2676 207.054 67.6022 208.225 67.6022C208.782 67.6022 209.34 67.4907 209.897 67.3234C210.455 67.1561 210.901 66.8773 211.292 66.5427L212.239 68.4944Z" fill="#010202"/>
<path d="M228.02 66.487C229.191 65.8178 230.083 64.8699 230.697 63.6989C231.366 62.4721 231.645 61.0781 231.645 59.5725C231.645 58.0112 231.31 56.6171 230.697 55.4461C230.028 54.2193 229.135 53.3271 228.02 52.658C226.849 51.9889 225.567 51.6543 224.117 51.6543C222.667 51.6543 221.385 51.9889 220.214 52.658C219.043 53.3271 218.15 54.2751 217.481 55.4461C216.812 56.6729 216.477 58.0669 216.477 59.5725C216.477 61.1338 216.812 62.5279 217.481 63.6989C218.15 64.9257 219.043 65.8736 220.214 66.487C221.385 67.1561 222.667 67.4907 224.117 67.4907C225.567 67.4907 226.905 67.1561 228.02 66.487ZM218.819 68.606C217.258 67.7138 216.031 66.487 215.083 64.9257C214.191 63.3643 213.745 61.5799 213.745 59.5725C213.745 57.5651 214.191 55.7807 215.083 54.2193C215.976 52.658 217.202 51.4312 218.819 50.539C220.381 49.6468 222.165 49.2007 224.117 49.2007C226.069 49.2007 227.853 49.6468 229.414 50.539C230.976 51.4312 232.202 52.658 233.095 54.2193C233.987 55.7807 234.433 57.5651 234.433 59.5725C234.433 61.5799 233.987 63.3643 233.095 64.9257C232.202 66.487 230.976 67.7138 229.414 68.606C227.853 69.4981 226.069 69.9442 224.117 69.9442C222.165 69.9442 220.437 69.4981 218.819 68.606Z" fill="#010202"/>
<path d="M255.957 49.368L246.868 69.7212H244.024L235.046 49.368H237.89L245.529 66.71L253.225 49.368H255.957Z" fill="#010202"/>
<path d="M275.585 51.4312C277.091 52.9368 277.871 55.0558 277.871 57.8996V69.7212H275.139V58.1784C275.139 56.0595 274.637 54.4424 273.578 53.3271C272.518 52.2119 271.013 51.6543 269.061 51.6543C266.886 51.6543 265.158 52.3234 263.875 53.6059C262.593 54.8885 261.979 56.7286 261.979 59.0149V69.7212H259.247V49.368H261.868V53.1041C262.593 51.8773 263.652 50.9294 264.99 50.2045C266.329 49.5353 267.89 49.2007 269.619 49.2007C272.072 49.2007 274.08 49.9814 275.585 51.4312Z" fill="#010202"/>
<path d="M294.767 66.71C295.883 65.9851 296.719 64.9814 297.221 63.6431V60.2974H290.808C287.295 60.2974 285.567 61.5242 285.567 63.9219C285.567 65.0929 286.013 66.0409 286.905 66.71C287.797 67.3792 289.08 67.7138 290.697 67.7138C292.314 67.7695 293.652 67.4349 294.767 66.71ZM297.89 51.2082C299.284 52.5465 300.009 54.4981 300.009 57.119V69.7212H297.388V66.5428C296.775 67.6022 295.883 68.4387 294.656 68.9963C293.429 69.6097 292.035 69.8885 290.362 69.8885C288.076 69.8885 286.292 69.3309 284.953 68.2714C283.615 67.2119 282.946 65.7621 282.946 63.9777C282.946 62.2491 283.559 60.855 284.842 59.7955C286.068 58.7361 288.076 58.2342 290.808 58.2342H297.277V57.0074C297.277 55.2788 296.775 53.9405 295.827 52.9926C294.823 52.1004 293.429 51.5985 291.533 51.5985C290.251 51.5985 289.024 51.8216 287.797 52.2119C286.626 52.658 285.567 53.2156 284.73 53.9963L283.503 51.9331C284.563 51.0409 285.79 50.3718 287.239 49.9257C288.689 49.4238 290.195 49.2007 291.812 49.2007C294.433 49.2007 296.44 49.8699 297.89 51.2082Z" fill="#010202"/>
</g>
<defs>
<clipPath id="clip0_134_368">
<rect width="300" height="77.0632" fill="white" transform="translate(0.0090332 0.353149)"/>
</clipPath>
</defs>
</svg>
