<?xml version="1.0" encoding="UTF-8"?>
<svg id="Layer_1" data-name="Layer 1" xmlns="http://www.w3.org/2000/svg" viewBox="0 0 2559.97 1067.24">
  <defs>
    <style>
      .cls-1 {
        letter-spacing: .02em;
      }

      .cls-2 {
        letter-spacing: .03em;
      }

      .cls-3 {
        letter-spacing: .02em;
      }

      .cls-4 {
        fill: #af8968;
      }

      .cls-5 {
        letter-spacing: .18em;
      }

      .cls-6 {
        letter-spacing: -.02em;
      }

      .cls-7 {
        letter-spacing: .2em;
      }

      .cls-8 {
        letter-spacing: .2em;
      }

      .cls-9 {
        font-family: Lexend-SemiBold, Lexend;
        font-size: 143.82px;
        font-variation-settings: 'wght' 600;
        font-weight: 600;
      }

      .cls-9, .cls-10 {
        fill: #231f20;
      }

      .cls-11 {
        letter-spacing: .02em;
      }

      .cls-12 {
        letter-spacing: .02em;
      }

      .cls-10 {
        font-family: Lexend-Medium, Lexend;
        font-size: 66px;
        font-variation-settings: 'wght' 500;
        font-weight: 500;
      }

      .cls-13 {
        letter-spacing: .19em;
      }

      .cls-14 {
        letter-spacing: 0em;
      }

      .cls-15 {
        letter-spacing: .19em;
      }

      .cls-16 {
        letter-spacing: .19em;
      }
    </style>
  </defs>
  <path class="cls-4" d="M1469.18,117.19s-.02,0-.06-.02c-.02,0-.04-.02-.08-.03-5.11-2.04-150.82-59.72-159.42-19.81,0,0-.07,.27-.21,.79-.6,2.34-2.36,9.83-3.55,22.05-1.2-12.42-2.99-19.95-3.55-22.12-.1-.39-.16-.61-.18-.65h0c-7.77-36.01-127.25,7.62-154.3,18.01-1.68,.57-3.36,1.16-5.03,1.76-105.8,38.1-179.67,123.1-179.67,221.75s79.36,190.02,191.67,225.81c0,0,.07,.01,.19,.05,3.43,.96,52.94,14.49,93.36,4.88,29.55-7.02,54.24-26.41,52.5-72.1,0,0,0-42.68-5.86-62.76-5.85-20.09-10.6-65.92,10.91-65.8,20.96-.12,16.71,45.71,10.85,65.8-5.86,20.08-5.86,62.76-5.86,62.76-1.73,45.75,23.03,65.13,52.64,72.13,37.71,8.91,83.26-2.26,91.95-4.56,113.1-35.5,193.15-123.44,193.15-226.3s-73.64-183.56-179.44-221.66Zm30.59,64.33c-.27,1.08-.64,2.22-1.08,3.42-9.77,26.35-38.46,35.8-56.03,55.28-51.5,57.12,34.48,122.37,52.79,171.63,11.94,32.1-2.97,63.85-33.78,77.5-55.23,24.48-81.59,7.54-91-25.1-9.41-32.63,0-52.09-15.06-84.1-14.39-30.58-37.14-44.83-50.02-44.71h-1.79c-13.41,.2-35.63,14.13-50.02,44.71-15.06,32.01-5.65,51.47-15.06,84.1-9.41,32.64-35.77,49.58-91,25.1-7.71-3.42-15.06-7.82-21.27-13.58-9.5-8.83-15.47-20.61-16.77-33.53-3.3-32.93,21.25-59.74,39.83-83.91,17.75-23.07,29.6-51.87,31.47-81.12,.76-11.96-1.99-25.56-10.7-34.24-8.9-8.89-19.83-15.35-29.62-23.15-11.15-8.88-24.91-21.27-29.96-34.88-.22-.59-.41-1.16-.59-1.73-5.41-17.01,7.49-20.47,19.27-20.35,1.45,.01,2.9,.08,4.33,.21,6.79,.59,13.43,2.41,19.64,5.25,109.93,50.36,143.07,53.39,150.46,53.19v-.16s.05,.01,.16,.03c.49,.09,.99,.09,1.48,0,.1-.01,.16-.03,.16-.03v.16c7.39,.2,40.53-2.83,150.46-53.19,6.85-3.14,14.21-5.03,21.72-5.39,.75-.04,1.5-.07,2.25-.07,11.38-.1,23.81,3.11,19.76,18.66Z"/>
  <text class="cls-9" transform="translate(461.14 804.89)"><tspan class="cls-2" x="0" y="0">NEU</tspan><tspan class="cls-12" x="326.33" y="0">R</tspan><tspan class="cls-1" x="429.16" y="0">O P</tspan><tspan class="cls-11" x="693.36" y="0">R</tspan><tspan class="cls-2" x="796.19" y="0">OB</tspan><tspan class="cls-6" x="1018.54" y="0">A</tspan><tspan class="cls-2" x="1115.04" y="0">T S.R</tspan><tspan class="cls-14" x="1494.73" y="0">.O</tspan><tspan class="cls-3" x="1647.04" y="0">.</tspan></text>
  <text class="cls-10" transform="translate(540.8 897.86)"><tspan class="cls-7" x="0" y="0">NEU</tspan><tspan class="cls-16" x="182.95" y="0">R</tspan><tspan class="cls-7" x="241.49" y="0">O</tspan><tspan class="cls-5" x="307.03" y="0">L</tspan><tspan class="cls-8" x="358.64" y="0">O</tspan><tspan class="cls-15" x="424.18" y="0">G</tspan><tspan class="cls-13" x="487.61" y="0">I</tspan><tspan class="cls-7" x="533.15" y="0">CKÁ AMBULANCE, EMG</tspan></text>
</svg>