<?xml version="1.0" encoding="UTF-8"?>
<svg id="Layer_1" data-name="Layer 1" xmlns="http://www.w3.org/2000/svg" viewBox="0 0 2559.97 737.45">
  <defs>
    <style>
      .cls-1 {
        letter-spacing: .02em;
      }

      .cls-2 {
        letter-spacing: .03em;
      }

      .cls-3 {
        letter-spacing: .02em;
      }

      .cls-4 {
        fill: #af8968;
      }

      .cls-5 {
        letter-spacing: .18em;
      }

      .cls-6 {
        letter-spacing: -.02em;
      }

      .cls-7 {
        letter-spacing: .2em;
      }

      .cls-8 {
        letter-spacing: .2em;
      }

      .cls-9 {
        font-family: Lexend-SemiBold, Lexend;
        font-size: 143.82px;
        font-variation-settings: 'wght' 600;
        font-weight: 600;
      }

      .cls-9, .cls-10 {
        fill: #231f20;
      }

      .cls-11 {
        letter-spacing: .02em;
      }

      .cls-12 {
        letter-spacing: .02em;
      }

      .cls-10 {
        font-family: Lexend-Medium, Lexend;
        font-size: 66px;
        font-variation-settings: 'wght' 500;
        font-weight: 500;
      }

      .cls-13 {
        letter-spacing: .19em;
      }

      .cls-14 {
        letter-spacing: 0em;
      }

      .cls-15 {
        letter-spacing: .19em;
      }

      .cls-16 {
        letter-spacing: .19em;
      }
    </style>
  </defs>
  <path class="cls-4" d="M494.96,231.41s-.01,0-.04-.01c-.01,0-.03-.01-.05-.02-3.38-1.35-99.9-39.56-105.6-13.12,0,0-.05,.18-.14,.53-.4,1.55-1.56,6.51-2.35,14.61-.8-8.23-1.98-13.21-2.35-14.65-.07-.26-.11-.4-.12-.43h0c-5.15-23.85-84.29,5.05-102.21,11.93-1.11,.38-2.23,.77-3.33,1.17-70.08,25.24-119.01,81.54-119.01,146.89s52.57,125.87,126.96,149.58c0,0,.04,0,.12,.03,2.27,.64,35.07,9.6,61.84,3.23,19.57-4.65,35.93-17.49,34.78-47.76,0,0,0-28.27-3.88-41.57-3.88-13.31-7.02-43.66,7.23-43.58,13.89-.08,11.07,30.28,7.19,43.58-3.88,13.3-3.88,41.57-3.88,41.57-1.15,30.31,15.25,43.14,34.87,47.78,24.98,5.9,55.15-1.5,60.9-3.02,74.92-23.51,127.94-81.76,127.94-149.9s-48.78-121.59-118.86-146.83Zm20.27,42.61c-.18,.72-.42,1.47-.72,2.27-6.47,17.45-25.47,23.71-37.12,36.62-34.11,37.84,22.84,81.06,34.97,113.69,7.91,21.26-1.97,42.29-22.38,51.33-36.59,16.22-54.04,4.99-60.28-16.63-6.23-21.62,0-34.5-9.98-55.71-9.53-20.26-24.6-29.69-33.13-29.62h-1.19c-8.88,.13-23.6,9.36-33.13,29.62-9.98,21.2-3.74,34.09-9.98,55.71-6.23,21.62-23.7,32.85-60.28,16.63-5.11-2.26-9.98-5.18-14.09-9-6.29-5.85-10.25-13.65-11.11-22.21-2.19-21.81,14.08-39.57,26.38-55.58,11.75-15.28,19.61-34.36,20.84-53.73,.51-7.92-1.32-16.93-7.09-22.68-5.89-5.89-13.13-10.16-19.62-15.34-7.39-5.88-16.5-14.09-19.84-23.1-.15-.39-.27-.77-.39-1.14-3.58-11.27,4.96-13.56,12.77-13.48,.96,0,1.92,.05,2.87,.14,4.5,.39,8.89,1.6,13.01,3.48,72.82,33.36,94.77,35.36,99.66,35.23v-.11s.03,0,.1,.02c.32,.06,.66,.06,.98,0,.07,0,.1-.02,.1-.02v.11c4.89,.13,26.85-1.87,99.66-35.23,4.54-2.08,9.41-3.33,14.39-3.57,.5-.03,1-.04,1.49-.05,7.54-.07,15.77,2.06,13.09,12.36Z"/>
  <text class="cls-9" transform="translate(720.76 367.82)"><tspan class="cls-2" x="0" y="0">NEU</tspan><tspan class="cls-12" x="326.33" y="0">R</tspan><tspan class="cls-1" x="429.16" y="0">O P</tspan><tspan class="cls-11" x="693.36" y="0">R</tspan><tspan class="cls-2" x="796.19" y="0">OB</tspan><tspan class="cls-6" x="1018.54" y="0">A</tspan><tspan class="cls-2" x="1115.04" y="0">T S.R</tspan><tspan class="cls-14" x="1494.73" y="0">.O</tspan><tspan class="cls-3" x="1647.04" y="0">.</tspan></text>
  <text class="cls-10" transform="translate(727.64 460.79)"><tspan class="cls-7" x="0" y="0">NEU</tspan><tspan class="cls-16" x="182.95" y="0">R</tspan><tspan class="cls-7" x="241.49" y="0">O</tspan><tspan class="cls-5" x="307.03" y="0">L</tspan><tspan class="cls-8" x="358.64" y="0">O</tspan><tspan class="cls-15" x="424.18" y="0">G</tspan><tspan class="cls-13" x="487.61" y="0">I</tspan><tspan class="cls-7" x="533.15" y="0">CKÁ AMBULANCE, EMG</tspan></text>
</svg>