<?xml version="1.0" encoding="UTF-8"?>
<svg id="Layer_2" data-name="Layer 2" xmlns="http://www.w3.org/2000/svg" viewBox="0 0 1426 257">
  <defs>
    <style>
      .cls-1 {
        fill: #fff;
      }

      .cls-2 {
        fill: #2da6ba;
      }
    </style>
  </defs>
  <polygon class="cls-1" points="29.47 70.43 94.4 70.43 94.4 235.54 130.78 235.54 130.78 70.43 195.7 70.43 195.7 39.65 29.47 39.65 29.47 70.43"/>
  <path class="cls-1" d="M336.61,91.14c-9.24-4.66-19.92-7-32.04-7-13.06,0-24.58,2.61-34.56,7.84-5.98,3.13-11.05,7.04-15.25,11.71V27.89h-34.7V235.54h34.7v-75.56c0-10.07,1.72-18.42,5.18-25.05,3.45-6.62,8.35-11.61,14.69-14.97,6.34-3.36,13.62-5.04,21.83-5.04,11.38,0,20.15,3.27,26.31,9.79,6.16,6.53,9.23,16.42,9.23,29.66v81.16h34.98v-85.63c0-15.11-2.76-27.52-8.26-37.22-5.51-9.7-12.87-16.88-22.11-21.55Z"/>
  <path class="cls-1" d="M515.57,93.8c-11.38-6.44-24.35-9.66-38.9-9.66s-28.22,3.31-39.88,9.93c-11.66,6.62-20.81,15.67-27.43,27.15-6.62,11.47-9.93,24.68-9.93,39.6s3.4,28.12,10.21,39.6c6.81,11.47,16.42,20.53,28.83,27.15,12.41,6.62,26.91,9.93,43.52,9.93,13.06,0,24.67-2.05,34.84-6.16,10.17-4.1,18.7-10.07,25.61-17.91l-19.03-21.83c-5.23,5.41-11.19,9.51-17.91,12.31-6.72,2.8-14.27,4.2-22.67,4.2-9.89,0-18.57-1.91-26.03-5.74-7.46-3.82-13.2-9.19-17.21-16.09-2.53-4.35-4.26-9.11-5.19-14.27h117.27c.18-1.49,.32-3.22,.42-5.18,.09-1.96,.14-3.59,.14-4.9,0-15.86-3.27-29.57-9.8-41.14-6.53-11.57-15.49-20.57-26.86-27Zm-76.68,39.88c3.54-6.72,8.63-11.89,15.25-15.53,6.62-3.64,14.13-5.46,22.53-5.46s16.04,1.82,22.39,5.46c6.34,3.64,11.33,8.77,14.97,15.39,2.55,4.65,4.14,9.74,4.81,15.25h-84.7c.77-5.51,2.34-10.55,4.75-15.11Z"/>
  <path class="cls-1" d="M806.61,19.5c-6.53,0-11.89,2.06-16.09,6.16-4.2,4.11-6.3,8.96-6.3,14.55,0,5.97,2.1,11.01,6.3,15.11,4.2,4.11,9.56,6.16,16.09,6.16s12.13-2.1,16.23-6.3c4.1-4.2,6.16-9.28,6.16-15.25s-2.1-10.87-6.3-14.69c-4.2-3.82-9.56-5.74-16.09-5.74Z"/>
  <rect class="cls-1" x="789.26" y="86.1" width="34.7" height="149.44"/>
  <polygon class="cls-1" points="1019.57 86.1 977.6 86.1 905.11 153.13 905.11 27.89 870.41 27.89 870.41 235.54 905.11 235.54 905.11 196.11 930.88 171.55 983.19 235.54 1025.45 235.54 956.96 148.72 1019.57 86.1"/>
  <path class="cls-1" d="M1138.93,158.72c-5.51-2.89-11.52-5.13-18.05-6.72-6.53-1.58-13.11-2.89-19.73-3.92-6.62-1.02-12.64-2.14-18.05-3.36-5.41-1.21-9.8-2.94-13.15-5.18-3.36-2.24-5.04-5.6-5.04-10.07,0-4.85,2.61-8.82,7.84-11.89,5.22-3.08,13.06-4.62,23.51-4.62,7.09,0,14.27,.8,21.55,2.38,7.28,1.59,14.36,4.43,21.27,8.54l13.71-26.59c-6.91-4.1-15.53-7.32-25.89-9.66-10.35-2.33-20.48-3.5-30.36-3.5-13.43,0-25.05,1.96-34.84,5.88-9.79,3.92-17.4,9.38-22.81,16.37-5.41,7-8.12,15.16-8.12,24.49,0,8.77,1.68,15.77,5.04,20.99,3.36,5.22,7.74,9.37,13.15,12.45,5.41,3.08,11.42,5.41,18.05,7,6.62,1.59,13.25,2.85,19.87,3.78,6.62,.94,12.64,1.96,18.05,3.08,5.41,1.12,9.79,2.76,13.15,4.9,3.36,2.15,5.04,5.27,5.04,9.37,0,5.04-2.47,9-7.42,11.9-4.95,2.89-12.83,4.34-23.65,4.34-9.51,0-18.94-1.35-28.27-4.06-9.33-2.7-17.35-6.2-24.07-10.49l-13.43,26.59c6.9,4.67,16.04,8.63,27.43,11.89,11.38,3.26,23.41,4.9,36.1,4.9,13.99,0,25.98-1.91,35.96-5.74,9.98-3.82,17.72-9.14,23.23-15.95,5.5-6.81,8.26-14.97,8.26-24.49,0-8.39-1.68-15.2-5.04-20.43-3.36-5.22-7.79-9.28-13.29-12.17Z"/>
  <path class="cls-1" d="M1291.3,93.8c-11.38-6.44-24.35-9.66-38.9-9.66s-28.22,3.31-39.88,9.93c-11.66,6.62-20.8,15.67-27.43,27.15-6.62,11.47-9.93,24.68-9.93,39.6s3.4,28.12,10.21,39.6c6.81,11.47,16.41,20.53,28.82,27.15,12.41,6.62,26.91,9.93,43.52,9.93,13.06,0,24.67-2.05,34.84-6.16,10.17-4.1,18.7-10.07,25.61-17.91l-19.03-21.83c-5.23,5.41-11.19,9.51-17.91,12.31-6.72,2.8-14.27,4.2-22.67,4.2-9.89,0-18.57-1.91-26.03-5.74-7.46-3.82-13.2-9.19-17.21-16.09-2.53-4.35-4.26-9.11-5.19-14.27h117.27c.18-1.49,.32-3.22,.42-5.18,.09-1.96,.14-3.59,.14-4.9,0-15.86-3.27-29.57-9.79-41.14-6.53-11.57-15.49-20.57-26.87-27Zm-76.68,39.88c3.54-6.72,8.63-11.89,15.25-15.53,6.62-3.64,14.13-5.46,22.53-5.46s16.04,1.82,22.39,5.46c6.34,3.64,11.33,8.77,14.97,15.39,2.55,4.65,4.14,9.74,4.81,15.25h-84.7c.77-5.51,2.34-10.55,4.75-15.11Z"/>
  <rect class="cls-1" x="1361.82" y="27.89" width="34.7" height="207.65"/>
  <polygon class="cls-2" points="708.95 79.3 708.95 39.93 669.59 39.93 630.22 39.93 630.22 79.3 669.59 79.3 708.95 79.3"/>
  <polygon class="cls-2" points="630.22 158.03 630.22 118.66 630.22 79.3 590.86 79.3 590.86 118.66 590.86 158.03 590.86 197.39 590.86 236.76 630.22 236.76 630.22 197.39 669.59 197.39 708.95 197.39 708.95 158.03 669.59 158.03 630.22 158.03"/>
  <polygon class="cls-2" points="708.95 118.66 708.95 158.03 748.32 158.03 748.32 118.66 748.32 79.3 708.95 79.3 708.95 118.66"/>
</svg>