<svg width="167" height="80" viewBox="0 0 167 80" fill="none" xmlns="http://www.w3.org/2000/svg">
<g clip-path="url(#clip0_134_394)">
<path d="M61.6116 38.3731C60.5773 39.4074 59.8214 40.1632 59.4634 40.5212C59.1054 40.1234 58.3098 39.3676 57.3152 38.3731H51.9448L56.4401 42.8683H62.5663L67.0615 38.3731H61.6116Z" fill="#F39200"/>
<path d="M4.3671 4.79804C4.96382 4.79804 6.19702 4.79804 7.86782 4.79804L12.2437 0.42215H4.96382L-0.00878906 5.39476V12.6747L4.3671 8.29876C4.3671 6.66774 4.3671 5.43454 4.3671 4.79804Z" fill="#F39200"/>
<path d="M78.8766 67.0948L74.5007 71.4707C74.5007 73.1018 74.5007 74.2952 74.5007 74.8919C73.9039 74.8919 72.6707 74.8919 71.0795 74.8919L66.7036 79.2678H73.9437L78.9163 74.2952V67.0948H78.8766Z" fill="#F39200"/>
<path d="M4.3671 74.9317C4.3671 74.335 4.3671 73.1018 4.3671 71.4707L-0.00878906 67.0948V74.3747L4.96382 79.3473H12.2437L7.86782 74.9715C6.19702 74.9317 5.0036 74.9317 4.3671 74.9317Z" fill="#F39200"/>
<path d="M26.4056 60.0537H17.0173L26.0874 49.5118V45.4541H11.4878V49.3924H20.0407L10.8115 60.2128V63.992H26.4056V60.0537Z" fill="#878787"/>
<path d="M30.2642 45.4541V71.3117H35.1174V61.6847C35.6346 62.4803 36.1517 63.0373 36.6689 63.4351C37.6236 64.1511 38.8568 64.5092 40.3287 64.5092C42.636 64.5092 44.5057 63.6738 45.9776 61.9632C47.4495 60.2526 48.1655 57.7464 48.1655 54.5242C48.1655 51.4213 47.4097 49.0742 45.9378 47.483C44.4659 45.8917 42.636 45.0961 40.4878 45.0961C39.0159 45.0961 37.743 45.4939 36.6689 46.3293C36.0722 46.8067 35.5152 47.4432 34.9981 48.2388V45.4541H30.2642ZM35.4357 51.8191C36.0722 50.1483 37.2656 49.3129 39.0159 49.3129C40.4481 49.3129 41.4824 49.8698 42.1586 50.9837C42.7951 52.0975 43.1134 53.3705 43.1134 54.8026C43.1134 56.553 42.7553 57.9453 42.0791 58.9796C41.4028 60.0139 40.3685 60.5311 39.0557 60.5311C38.1408 60.5311 37.3451 60.2924 36.6689 59.7752C35.5152 58.9001 34.9583 57.3884 34.9583 55.2004C34.9583 53.8479 35.1174 52.6942 35.4357 51.8191Z" fill="#878787"/>
<path d="M62.1286 52.8931C59.2246 52.2566 57.5538 51.819 57.0764 51.5406C56.5991 51.3019 56.3604 50.9041 56.3604 50.3471C56.3604 49.9096 56.5991 49.5117 57.0367 49.1935C57.4743 48.8753 58.2301 48.6764 59.2644 48.6764C60.5374 48.6764 61.4126 48.9946 61.9695 49.6709C62.248 50.0289 62.4469 50.546 62.4866 51.1428H67.3399C67.141 48.8753 66.3056 47.284 64.8337 46.3293C63.3618 45.4143 61.4921 44.937 59.1848 44.937C56.7582 44.937 54.8487 45.5337 53.536 46.7669C52.1834 48.0001 51.5071 49.472 51.5071 51.1825C51.5071 52.6544 51.9447 53.7285 52.7801 54.5241C53.6553 55.3198 55.1272 55.9562 57.1958 56.4734C60.0998 57.1497 61.8104 57.627 62.248 57.9453C62.7253 58.2238 62.964 58.6613 62.964 59.1785C62.964 59.7354 62.6855 60.173 62.1286 60.4515C61.5717 60.7299 60.8158 60.8891 59.8611 60.8891C58.2301 60.8891 57.1162 60.5708 56.5195 59.9343C56.1615 59.5763 55.9626 58.9796 55.8432 58.1044H50.9502C50.9502 60.0139 51.6265 61.5653 53.0188 62.7986C54.4111 64.0318 56.5593 64.6285 59.4633 64.6285C62.3275 64.6285 64.4359 64.0715 65.7884 62.8781C67.141 61.7245 67.8571 60.2526 67.8571 58.4227C67.8571 57.0303 67.3797 55.8767 66.4249 54.9617C65.51 54.007 64.0779 53.3307 62.1286 52.8931Z" fill="#878787"/>
<path d="M67.1015 74.9317H66.6639H55.6844C41.0451 74.9317 33.5265 74.9317 23.8995 74.9317H12.2437H11.8459H11.8062L16.182 79.3076H24.0189H50.1151H62.6859L67.1015 74.9317Z" fill="#878787"/>
<path d="M74.501 24.768C74.501 38.214 74.501 45.7723 74.501 55.638V67.0551V67.1744V67.5324L78.8769 63.1565V55.5186V29.1837V16.613L74.501 12.2371V24.768Z" fill="#878787"/>
<path d="M4.3671 67.4927V67.0551V55.0015V54.9617V23.6542V12.6747V12.3962V12.2769L-0.00878906 16.6527V23.7735V50.546V63.1168L4.3671 67.4927Z" fill="#878787"/>
<path d="M11.8462 4.79804H12.244H20.2797C37.2264 4.79804 44.9836 4.79804 57.077 4.79804H67.062L62.6861 0.42215H56.9577H28.7531H16.2221L11.8462 4.79804Z" fill="#878787"/>
<path d="M89.8165 49.9095H92.8398V51.1427H87.8672V49.9493L90.811 46.6077H88.0661V45.4142H92.7205V46.6475L89.8165 49.9095Z" fill="#878787"/>
<path d="M96.9372 49.1139C96.9372 49.8299 96.2609 50.2675 95.5847 50.2675C95.3062 50.2675 94.8686 50.1084 94.8686 49.5912C94.8686 48.9547 95.346 48.8354 95.9029 48.7161C96.5394 48.6365 96.7781 48.5172 96.9372 48.3978V49.1139ZM98.4091 46.9259C98.4091 45.4938 96.9372 45.2551 96.1018 45.2551C94.9084 45.2551 93.715 45.4938 93.5161 47.284H94.988C95.0277 46.9657 95.1471 46.4883 95.9029 46.4883C96.3007 46.4883 96.8974 46.5281 96.8974 47.1646C96.8974 47.4829 96.619 47.6022 96.3803 47.6022L95.0277 47.8011C94.073 47.9602 93.3569 48.5172 93.3569 49.631C93.3569 50.8244 94.2321 51.3018 95.1073 51.3018C96.1416 51.3018 96.619 50.8244 96.977 50.4664C97.0168 50.7847 97.0168 50.8642 97.1361 51.1427H98.7671V50.9438C98.5682 50.8642 98.4489 50.7449 98.4489 50.0288V46.9259H98.4091Z" fill="#878787"/>
<path d="M107.996 51.1825H106.484V47.6818C106.484 46.8464 106.087 46.5281 105.649 46.5281C104.893 46.5281 104.615 47.0055 104.615 47.7215V51.1825H103.103V47.7215C103.103 47.2442 103.103 46.5679 102.188 46.5679C101.472 46.5679 101.233 47.0453 101.233 47.6818V51.1825H99.7217V45.4143H101.154V46.2496H101.194C101.392 45.8518 101.79 45.2551 102.825 45.2551C103.66 45.2551 104.018 45.5734 104.416 46.1701C104.615 45.8916 105.013 45.2551 105.967 45.2551C107.081 45.2551 107.956 45.9314 107.956 47.1646V51.1825H107.996Z" fill="#878787"/>
<path d="M110.463 47.7215C110.542 46.9657 110.94 46.5281 111.656 46.5281C112.133 46.5281 112.73 46.8066 112.81 47.7215H110.463ZM112.73 49.4719C112.611 49.8697 112.173 50.1084 111.775 50.1084C110.542 50.1084 110.463 49.1536 110.423 48.7161H114.361V48.4376C114.361 45.812 112.81 45.2551 111.656 45.2551C109.15 45.2551 108.911 47.4828 108.911 48.1591C108.911 50.5062 110.144 51.3018 111.775 51.3018C112.77 51.3018 113.884 50.8642 114.321 49.4719H112.73ZM113.486 43.0672H112.253L111.576 43.9423L110.9 43.0672H109.667L110.9 44.6584H112.253L113.486 43.0672Z" fill="#878787"/>
<path d="M118.618 47.1646C118.538 46.8066 118.419 46.4088 117.584 46.4088C116.748 46.4088 116.669 46.727 116.669 46.9657C116.669 47.8807 120.249 47.2044 120.249 49.3128C120.249 50.9836 118.618 51.3018 117.743 51.3018C116.43 51.3018 115.038 50.8642 114.958 49.3128H116.509C116.509 49.7901 116.828 50.1482 117.782 50.1482C118.578 50.1482 118.737 49.7504 118.737 49.5515C118.737 48.5967 115.157 49.3128 115.157 47.1646C115.157 46.3292 115.674 45.2551 117.464 45.2551C118.578 45.2551 119.931 45.5336 120.05 47.1646H118.618Z" fill="#878787"/>
<path d="M123.073 45.4142H124.028V46.4883H123.073V49.5912C123.073 49.9095 123.073 50.0686 123.709 50.0686C123.789 50.0686 123.908 50.0686 124.028 50.0288V51.1825C123.789 51.1825 123.55 51.2222 123.312 51.2222H123.113C121.8 51.2222 121.561 50.7449 121.561 49.989V46.4883H120.766V45.4142H121.561V43.8628H123.073V45.4142Z" fill="#878787"/>
<path d="M130.154 51.1825H128.642V47.6818C128.642 47.2442 128.602 46.5281 127.647 46.5281C126.971 46.5281 126.454 46.9657 126.454 47.8409V51.1427H124.942V45.3745H126.374V46.2099H126.414C126.613 45.8519 127.051 45.2154 128.125 45.2154C129.239 45.2154 130.114 45.8916 130.114 47.1248V51.1825H130.154Z" fill="#878787"/>
<path d="M134.768 49.1139C134.768 49.8299 134.092 50.2675 133.416 50.2675C133.137 50.2675 132.7 50.1084 132.7 49.5912C132.7 48.9547 133.177 48.8354 133.734 48.7161C134.37 48.6365 134.609 48.5172 134.768 48.3978V49.1139ZM136.24 46.9259C136.24 45.4938 134.768 45.2551 133.933 45.2551C132.739 45.2551 131.546 45.4938 131.347 47.284H132.819C132.859 46.9657 132.978 46.4883 133.734 46.4883C134.132 46.4883 134.728 46.5281 134.728 47.1646C134.728 47.4829 134.45 47.6022 134.211 47.6022L132.859 47.8011C131.904 47.9602 131.188 48.5172 131.188 49.631C131.188 50.8244 132.063 51.3018 132.938 51.3018C133.973 51.3018 134.45 50.8244 134.808 50.4664C134.848 50.7847 134.848 50.8642 134.967 51.1427H136.598V50.9438C136.399 50.8642 136.28 50.7449 136.28 50.0288V46.9259H136.24Z" fill="#878787"/>
<path d="M142.765 51.1825H141.253V47.6818C141.253 47.2442 141.213 46.5281 140.258 46.5281C139.582 46.5281 139.065 46.9657 139.065 47.8409V51.1427H137.553V45.3745H138.985V46.2099H139.025C139.224 45.8519 139.662 45.2154 140.736 45.2154C141.85 45.2154 142.725 45.8916 142.725 47.1248V51.1825H142.765Z" fill="#878787"/>
<path d="M145.271 47.7215C145.351 46.9657 145.748 46.5281 146.464 46.5281C146.942 46.5281 147.538 46.8066 147.618 47.7215H145.271ZM147.578 49.4719C147.459 49.8697 147.021 50.1084 146.624 50.1084C145.39 50.1084 145.311 49.1537 145.271 48.7161H149.209V48.4376C149.209 45.8121 147.658 45.2551 146.504 45.2551C143.998 45.2551 143.759 47.4829 143.759 48.1591C143.759 50.5062 144.992 51.3018 146.624 51.3018C147.618 51.3018 148.732 50.8642 149.169 49.4719H147.578Z" fill="#878787"/>
<path d="M155.137 49.0741C155.097 49.6708 154.619 51.3018 152.511 51.3018C150.363 51.3018 149.846 49.631 149.846 48.4376C149.846 46.5679 150.641 45.2551 152.591 45.2551C153.506 45.2551 154.977 45.6529 155.137 47.4431H153.585C153.506 47.0453 153.267 46.4883 152.591 46.5281C151.636 46.5281 151.397 47.4829 151.397 48.1989C151.397 48.8354 151.437 50.0686 152.551 50.0686C153.307 50.0686 153.585 49.3526 153.585 49.0741H155.137Z" fill="#878787"/>
<path d="M157.563 51.1825H156.051V43.4252H157.563V47.6022L159.472 45.4142H161.342L159.313 47.642L161.382 51.1825H159.552L158.199 48.7161L157.563 49.3525V51.1825Z" fill="#878787"/>
<path d="M165.161 49.1139C165.161 49.8299 164.485 50.2675 163.808 50.2675C163.53 50.2675 163.092 50.1084 163.092 49.5912C163.092 48.9547 163.57 48.8354 164.127 48.7161C164.763 48.6365 165.002 48.5171 165.161 48.3978V49.1139ZM166.633 46.9259C166.633 45.4938 165.161 45.2551 164.325 45.2551C163.132 45.2551 161.939 45.4938 161.74 47.2839H163.212C163.251 46.9657 163.371 46.4883 164.127 46.4883C164.524 46.4883 165.121 46.5281 165.121 47.1646C165.121 47.4828 164.843 47.6022 164.604 47.6022L163.251 47.8011C162.297 47.9602 161.581 48.5171 161.581 49.631C161.581 50.8244 162.456 51.3018 163.331 51.3018C164.365 51.3018 164.843 50.8244 165.201 50.4664C165.24 50.7847 165.24 50.8642 165.36 51.1427H166.991V50.9438C166.792 50.8642 166.673 50.7449 166.673 50.0288V46.9259H166.633ZM166.275 43.0672H164.604L163.57 44.6584H164.644L166.275 43.0672Z" fill="#878787"/>
<path d="M89.7761 62.4405C89.7761 61.5255 90.0148 60.6106 91.0491 60.6106C92.0038 60.6106 92.3221 61.446 92.3221 62.3609C92.3221 63.0372 92.0436 64.1113 91.0889 64.1113C90.1341 64.1113 89.7761 63.2759 89.7761 62.4405ZM89.7761 59.4569H88.3042V67.4529H89.8159V64.4693H89.8556C90.0546 64.7875 90.4126 65.3445 91.4867 65.3445C93.1972 65.3445 93.9133 63.8328 93.9133 62.2416C93.9133 60.2525 92.7994 59.2978 91.5265 59.2978C90.4921 59.2978 90.0943 59.8149 89.8159 60.2923H89.7761V59.4569Z" fill="#878787"/>
<path d="M98.7668 62.3211C98.7668 63.0372 98.5679 64.0715 97.3745 64.0715C96.2208 64.0715 95.9821 63.0372 95.9821 62.3211C95.9821 61.6051 96.181 60.5708 97.3745 60.5708C98.5679 60.5708 98.7668 61.5653 98.7668 62.3211ZM100.318 62.3211C100.318 60.2525 98.9259 59.2978 97.3745 59.2978C95.823 59.2978 94.4307 60.2525 94.4307 62.3211C94.4307 64.3897 95.823 65.3445 97.3745 65.3445C98.9259 65.3445 100.318 64.3897 100.318 62.3211Z" fill="#878787"/>
<path d="M102.944 65.782C102.944 67.2937 102.268 67.4926 101.114 67.4926H100.756V66.2992H101.034C101.193 66.2992 101.472 66.2992 101.472 65.782V59.4569H102.984V65.782H102.944ZM102.944 58.7408H101.432V57.3485H102.944V58.7408Z" fill="#878787"/>
<path d="M106.007 59.4569V65.1853H104.496V59.4569H106.007ZM106.007 58.7408H104.496V57.3485H106.007V58.7408Z" fill="#878787"/>
<path d="M110.82 61.1674C110.741 60.8094 110.622 60.4116 109.786 60.4116C108.951 60.4116 108.871 60.7298 108.871 60.9685C108.871 61.8835 112.452 61.2072 112.452 63.3156C112.452 64.9864 110.82 65.3046 109.945 65.3046C108.633 65.3046 107.24 64.8671 107.161 63.3156H108.712C108.712 63.793 109.03 64.151 109.985 64.151C110.781 64.151 110.94 63.7532 110.94 63.5543C110.94 62.5995 107.36 63.3156 107.36 61.1674C107.36 60.332 107.877 59.258 109.667 59.258C110.781 59.258 112.133 59.5364 112.253 61.1674H110.82ZM110.462 58.6612H109.11L107.877 57.07H109.11L109.786 57.9452L110.462 57.07H111.696L110.462 58.6612Z" fill="#878787"/>
<path d="M115.276 59.4569H116.231V60.5309H115.276V63.6338C115.276 63.9521 115.276 64.1112 115.913 64.1112C115.992 64.1112 116.111 64.1112 116.231 64.0714V65.2251C115.992 65.2251 115.753 65.2649 115.515 65.2649H115.316C114.003 65.2649 113.764 64.7875 113.764 64.0317V60.5309H112.969V59.4569H113.764V57.9054H115.276V59.4569ZM115.833 57.428H116.827V58.1441C116.827 59.0591 116.271 59.258 115.873 59.3375V58.9397C116.31 58.7806 116.35 58.5817 116.35 58.3032H115.833V57.428Z" fill="#878787"/>
<path d="M121.163 62.3211C121.163 63.0372 120.964 64.0715 119.771 64.0715C118.617 64.0715 118.379 63.0372 118.379 62.3211C118.379 61.6051 118.578 60.5708 119.771 60.5708C120.925 60.5708 121.163 61.5653 121.163 62.3211ZM122.715 62.3211C122.715 60.2525 121.322 59.2978 119.771 59.2978C118.219 59.2978 116.827 60.2525 116.827 62.3211C116.827 64.3897 118.219 65.3445 119.771 65.3445C121.322 65.3445 122.715 64.3897 122.715 62.3211Z" fill="#878787"/>
<path d="M126.653 65.1853H125.062L122.994 59.4568H124.664L125.858 63.6736H125.898L127.131 59.4568H128.722L126.653 65.1853Z" fill="#878787"/>
<path d="M134.768 65.1853H133.257V61.6846C133.257 61.247 133.217 60.531 132.262 60.531C131.586 60.531 131.069 60.9685 131.069 61.8437V65.1455H129.557V59.4171H130.989V60.2525H131.029C131.228 59.8945 131.666 59.258 132.74 59.258C133.853 59.258 134.729 59.9342 134.729 61.1674V65.1853H134.768Z" fill="#878787"/>
<path d="M139.343 63.1168C139.343 63.8328 138.667 64.2704 137.991 64.2704C137.712 64.2704 137.275 64.1113 137.275 63.5941C137.275 62.9576 137.752 62.8383 138.309 62.7189C138.946 62.6394 139.184 62.52 139.343 62.4007V63.1168ZM140.815 60.9686C140.815 59.5365 139.343 59.2978 138.508 59.2978C137.315 59.2978 136.121 59.5365 135.922 61.3266H137.394C137.434 61.0084 137.553 60.531 138.309 60.531C138.707 60.531 139.304 60.5708 139.304 61.2073C139.304 61.5255 139.025 61.6449 138.787 61.6449L137.434 61.8438C136.479 62.0029 135.763 62.5598 135.763 63.6737C135.763 64.8671 136.638 65.3445 137.514 65.3445C138.548 65.3445 139.025 64.8671 139.383 64.5091C139.423 64.8273 139.423 64.9069 139.542 65.1854H141.173V64.9467C140.974 64.8671 140.855 64.7478 140.855 64.0317V60.9686H140.815Z" fill="#878787"/>
<path d="M91.6061 75.2101C91.5266 74.8521 91.4072 74.4543 90.5718 74.4543C89.7364 74.4543 89.6569 74.7725 89.6569 75.0112C89.6569 75.9262 93.2371 75.2499 93.2371 77.3583C93.2371 79.0291 91.6061 79.3473 90.7309 79.3473C89.4182 79.3473 88.0259 78.9097 87.9463 77.3583H89.4977C89.4977 77.8356 89.816 78.1937 90.7309 78.1937C91.5266 78.1937 91.6857 77.7959 91.6857 77.597C91.6857 76.6422 88.1054 77.3583 88.1054 75.2101C88.1054 74.3747 88.6226 73.3006 90.4127 73.3006C91.5266 73.3006 92.8791 73.5791 92.9985 75.2101H91.6061ZM91.2481 72.6641H89.8955L88.6623 71.0729H89.8955L90.5718 71.9481L91.2481 71.0729H92.4813L91.2481 72.6641Z" fill="#878787"/>
<path d="M95.9028 79.1882H94.3911V71.4309H95.9028V75.6079L97.8123 73.42H99.682L97.6531 75.6477L99.7217 79.1882H97.8918L96.5393 76.7218L95.9028 77.3583V79.1882Z" fill="#878787"/>
<path d="M104.177 76.324C104.177 77.04 103.978 78.0743 102.785 78.0743C101.631 78.0743 101.392 77.04 101.392 76.324C101.392 75.6079 101.591 74.5736 102.785 74.5736C103.978 74.5736 104.177 75.6079 104.177 76.324ZM105.728 76.324C105.728 74.2554 104.336 73.3006 102.785 73.3006C101.233 73.3006 99.8408 74.2554 99.8408 76.324C99.8408 78.3926 101.233 79.3473 102.785 79.3473C104.336 79.3473 105.728 78.3926 105.728 76.324Z" fill="#878787"/>
<path d="M108.036 76.3638C108.036 75.4488 108.354 74.6134 109.309 74.6134C110.343 74.6134 110.622 75.5284 110.622 76.4433C110.622 77.2787 110.224 78.1141 109.269 78.1141C108.315 78.1141 108.036 77.04 108.036 76.3638ZM112.054 71.4309H110.542V74.1758H110.502C110.264 73.8178 109.826 73.2609 108.832 73.2609C107.559 73.2609 106.445 74.2156 106.445 76.2046C106.445 77.7959 107.161 79.3075 108.871 79.3075C109.508 79.3075 110.184 79.0689 110.542 78.4324H110.582V79.1484H112.054V71.4309Z" fill="#878787"/>
<path d="M116.589 77.1594C116.589 77.8754 115.912 78.313 115.236 78.313C114.958 78.313 114.52 78.1539 114.52 77.6367C114.52 77.0003 114.997 76.8809 115.554 76.7616C116.191 76.682 116.429 76.5627 116.589 76.4433V77.1594ZM118.06 74.9714C118.06 73.5393 116.589 73.3006 115.753 73.3006C114.56 73.3006 113.366 73.5393 113.167 75.3295H114.639C114.679 75.0112 114.798 74.5338 115.554 74.5338C115.952 74.5338 116.549 74.5736 116.549 75.2101C116.549 75.5284 116.27 75.6477 116.032 75.6477L114.679 75.8466C113.724 76.0057 113.008 76.5627 113.008 77.6765C113.008 78.8699 113.883 79.3473 114.759 79.3473C115.793 79.3473 116.27 78.8699 116.628 78.5119C116.668 78.8302 116.668 78.9097 116.787 79.1882H118.418V78.9495C118.22 78.8699 118.1 78.7506 118.1 78.0346V74.9714H118.06Z" fill="#878787"/>
</g>
<defs>
<clipPath id="clip0_134_394">
<rect width="167" height="78.9252" fill="white" transform="translate(-0.00878906 0.42215)"/>
</clipPath>
</defs>
</svg>
